<mxfile host="app.diagrams.net" modified="2024-07-16T14:57:24.089Z" agent="Mozilla/5.0 (Macintosh; Intel Mac OS X 10_15_7) AppleWebKit/537.36 (KHTML, like Gecko) Chrome/126.0.0.0 Safari/537.36" etag="IPTiFhr0x06QDdN5turR" version="24.6.5" type="device">
  <diagram name="Page-1" id="UkoJzQrVLTzVywo1OOwM">
    <mxGraphModel dx="1434" dy="761" grid="1" gridSize="10" guides="1" tooltips="1" connect="1" arrows="1" fold="1" page="1" pageScale="1" pageWidth="827" pageHeight="1169" math="0" shadow="0">
      <root>
        <mxCell id="0" />
        <mxCell id="1" parent="0" />
        <mxCell id="YppN-hFi4R89HKXplX_y-26" style="edgeStyle=orthogonalEdgeStyle;rounded=0;orthogonalLoop=1;jettySize=auto;html=1;entryX=1;entryY=0.25;entryDx=0;entryDy=0;" edge="1" parent="1" source="YppN-hFi4R89HKXplX_y-25" target="YppN-hFi4R89HKXplX_y-10">
          <mxGeometry relative="1" as="geometry" />
        </mxCell>
        <mxCell id="YppN-hFi4R89HKXplX_y-27" value="SSHFS&lt;div&gt;(/mnt/cln)&lt;/div&gt;" style="edgeLabel;html=1;align=center;verticalAlign=middle;resizable=0;points=[];" vertex="1" connectable="0" parent="YppN-hFi4R89HKXplX_y-26">
          <mxGeometry x="0.0129" relative="1" as="geometry">
            <mxPoint as="offset" />
          </mxGeometry>
        </mxCell>
        <mxCell id="YppN-hFi4R89HKXplX_y-25" value="Server (Cln)" style="rounded=0;whiteSpace=wrap;html=1;align=left;verticalAlign=top;fillColor=#e1d5e7;strokeColor=#9673a6;" vertex="1" parent="1">
          <mxGeometry x="508" y="60" width="140" height="140" as="geometry" />
        </mxCell>
        <mxCell id="YppN-hFi4R89HKXplX_y-23" style="edgeStyle=orthogonalEdgeStyle;rounded=0;orthogonalLoop=1;jettySize=auto;html=1;entryX=1;entryY=0.75;entryDx=0;entryDy=0;" edge="1" parent="1" source="YppN-hFi4R89HKXplX_y-21" target="YppN-hFi4R89HKXplX_y-10">
          <mxGeometry relative="1" as="geometry" />
        </mxCell>
        <mxCell id="YppN-hFi4R89HKXplX_y-24" value="SSHFS&lt;div&gt;(/mnt/rad/)&lt;/div&gt;" style="edgeLabel;html=1;align=center;verticalAlign=middle;resizable=0;points=[];" vertex="1" connectable="0" parent="YppN-hFi4R89HKXplX_y-23">
          <mxGeometry x="0.03" y="-1" relative="1" as="geometry">
            <mxPoint as="offset" />
          </mxGeometry>
        </mxCell>
        <mxCell id="YppN-hFi4R89HKXplX_y-21" value="Server (Rad)" style="rounded=0;whiteSpace=wrap;html=1;align=left;verticalAlign=top;fillColor=#e1d5e7;strokeColor=#9673a6;" vertex="1" parent="1">
          <mxGeometry x="508" y="400" width="140" height="140" as="geometry" />
        </mxCell>
        <mxCell id="YppN-hFi4R89HKXplX_y-12" value="Server" style="rounded=0;whiteSpace=wrap;html=1;align=left;verticalAlign=top;fillColor=#dae8fc;strokeColor=#6c8ebf;" vertex="1" parent="1">
          <mxGeometry x="30" y="230" width="140" height="140" as="geometry" />
        </mxCell>
        <mxCell id="YppN-hFi4R89HKXplX_y-17" style="edgeStyle=orthogonalEdgeStyle;rounded=0;orthogonalLoop=1;jettySize=auto;html=1;entryX=1;entryY=0.5;entryDx=0;entryDy=0;" edge="1" parent="1" source="YppN-hFi4R89HKXplX_y-11" target="YppN-hFi4R89HKXplX_y-10">
          <mxGeometry relative="1" as="geometry" />
        </mxCell>
        <mxCell id="YppN-hFi4R89HKXplX_y-19" value="SSHFS&lt;div&gt;(/mnt/odcf)&lt;/div&gt;" style="edgeLabel;html=1;align=center;verticalAlign=middle;resizable=0;points=[];" vertex="1" connectable="0" parent="YppN-hFi4R89HKXplX_y-17">
          <mxGeometry x="-0.0408" y="-1" relative="1" as="geometry">
            <mxPoint as="offset" />
          </mxGeometry>
        </mxCell>
        <mxCell id="YppN-hFi4R89HKXplX_y-11" value="Server (OTP)" style="rounded=0;whiteSpace=wrap;html=1;align=left;verticalAlign=top;fillColor=#e1d5e7;strokeColor=#9673a6;" vertex="1" parent="1">
          <mxGeometry x="508" y="230" width="140" height="140" as="geometry" />
        </mxCell>
        <mxCell id="YppN-hFi4R89HKXplX_y-18" style="edgeStyle=orthogonalEdgeStyle;rounded=0;orthogonalLoop=1;jettySize=auto;html=1;entryX=1;entryY=0.5;entryDx=0;entryDy=0;" edge="1" parent="1" source="YppN-hFi4R89HKXplX_y-10" target="YppN-hFi4R89HKXplX_y-12">
          <mxGeometry relative="1" as="geometry" />
        </mxCell>
        <mxCell id="YppN-hFi4R89HKXplX_y-20" value="HTTP(S)" style="edgeLabel;html=1;align=center;verticalAlign=middle;resizable=0;points=[];" vertex="1" connectable="0" parent="YppN-hFi4R89HKXplX_y-18">
          <mxGeometry x="-0.02" relative="1" as="geometry">
            <mxPoint as="offset" />
          </mxGeometry>
        </mxCell>
        <mxCell id="YppN-hFi4R89HKXplX_y-10" value="Server" style="rounded=0;whiteSpace=wrap;html=1;align=left;verticalAlign=top;fillColor=#d5e8d4;strokeColor=#82b366;" vertex="1" parent="1">
          <mxGeometry x="270" y="230" width="140" height="140" as="geometry" />
        </mxCell>
        <mxCell id="YppN-hFi4R89HKXplX_y-1" value="UNITE Portal" style="rounded=0;whiteSpace=wrap;html=1;" vertex="1" parent="1">
          <mxGeometry x="40" y="270" width="120" height="60" as="geometry" />
        </mxCell>
        <mxCell id="YppN-hFi4R89HKXplX_y-2" value="Data Source" style="rounded=0;whiteSpace=wrap;html=1;" vertex="1" parent="1">
          <mxGeometry x="280" y="270" width="120" height="60" as="geometry" />
        </mxCell>
        <mxCell id="YppN-hFi4R89HKXplX_y-4" value="BAM,&lt;div&gt;MEX,&lt;/div&gt;&lt;div&gt;VCF,&lt;/div&gt;&lt;div&gt;TSV&lt;/div&gt;" style="shape=note;whiteSpace=wrap;html=1;backgroundOutline=1;darkOpacity=0.05;size=13;" vertex="1" parent="1">
          <mxGeometry x="546" y="260" width="64" height="80" as="geometry" />
        </mxCell>
        <mxCell id="YppN-hFi4R89HKXplX_y-7" value="Clinical,&lt;div&gt;Treatments,&lt;/div&gt;&lt;div&gt;Specimens&lt;/div&gt;" style="shape=note;whiteSpace=wrap;html=1;backgroundOutline=1;darkOpacity=0.05;size=13;" vertex="1" parent="1">
          <mxGeometry x="546" y="90" width="64" height="80" as="geometry" />
        </mxCell>
        <mxCell id="YppN-hFi4R89HKXplX_y-9" value="Images" style="shape=note;whiteSpace=wrap;html=1;backgroundOutline=1;darkOpacity=0.05;size=13;" vertex="1" parent="1">
          <mxGeometry x="546" y="430" width="64" height="80" as="geometry" />
        </mxCell>
        <mxCell id="YppN-hFi4R89HKXplX_y-33" style="edgeStyle=orthogonalEdgeStyle;rounded=0;orthogonalLoop=1;jettySize=auto;html=1;" edge="1" parent="1" source="YppN-hFi4R89HKXplX_y-29" target="YppN-hFi4R89HKXplX_y-2">
          <mxGeometry relative="1" as="geometry" />
        </mxCell>
        <mxCell id="YppN-hFi4R89HKXplX_y-34" value="Crawler&lt;div&gt;&amp;nbsp; - Reader-1&lt;/div&gt;&lt;div&gt;&amp;nbsp; - Reader-2&lt;/div&gt;&lt;div&gt;&amp;nbsp; - Reader-3&lt;/div&gt;" style="edgeLabel;html=1;align=left;verticalAlign=top;resizable=0;points=[];" vertex="1" connectable="0" parent="YppN-hFi4R89HKXplX_y-33">
          <mxGeometry x="-0.1111" y="1" relative="1" as="geometry">
            <mxPoint x="-29" y="-20" as="offset" />
          </mxGeometry>
        </mxCell>
        <mxCell id="YppN-hFi4R89HKXplX_y-29" value="" style="shape=mxgraph.cisco.people.androgenous_person;html=1;pointerEvents=1;dashed=0;fillColor=#036897;strokeColor=#ffffff;strokeWidth=2;verticalLabelPosition=bottom;verticalAlign=top;align=center;outlineConnect=0;" vertex="1" parent="1">
          <mxGeometry x="313.08" y="446" width="53.85" height="64" as="geometry" />
        </mxCell>
        <mxCell id="YppN-hFi4R89HKXplX_y-36" value="" style="html=1;verticalLabelPosition=bottom;align=center;labelBackgroundColor=#ffffff;verticalAlign=top;strokeWidth=2;strokeColor=#0080F0;shadow=0;dashed=0;shape=mxgraph.ios7.icons.looking_glass;" vertex="1" parent="1">
          <mxGeometry x="135" y="315" width="25" height="25" as="geometry" />
        </mxCell>
      </root>
    </mxGraphModel>
  </diagram>
</mxfile>
